<svg xmlns="http://www.w3.org/2000/svg" viewBox="0 0 623.24 138.96">
  <defs>
    <style>
      .cls-1 {
        fill: #fff;
      }

      .cls-2 {
        opacity: 0.8;
      }
    </style>
  </defs>
  <title>formish-05</title>
  <g id="Calque_10" data-name="Calque 10">
    <path class="cls-1" d="M28.48,25.43l-2.68,5.9a1.49,1.49,0,0,0,.1,1.49,2.65,2.65,0,0,0,2.24.92H90.35a4.75,4.75,0,0,0,4.12-2.39,20.77,20.77,0,0,1,4.36-5.42A22.45,22.45,0,0,1,101,24.24l1.21-.84H32.41A4.48,4.48,0,0,0,28.48,25.43Z"/>
    <path class="cls-1" d="M23.52,61.88h7.15a3.91,3.91,0,0,0,3.38-2.16l2.73-6.28a1.79,1.79,0,0,0-.07-1.76,2,2,0,0,0-1.7-.8H27.87A3.93,3.93,0,0,0,24.48,53l-2.73,6.28a1.82,1.82,0,0,0,.07,1.76A2,2,0,0,0,23.52,61.88Z"/>
    <path class="cls-1" d="M86.66,51.19H54.75a4.56,4.56,0,0,0-4,2.09L48,59.37a1.54,1.54,0,0,0,.1,1.53,2.69,2.69,0,0,0,2.29,1h34a4,4,0,0,0,3.72-3.05l1-3.86A2.63,2.63,0,0,0,89,52.43,2.66,2.66,0,0,0,86.66,51.19Z"/>
    <path class="cls-1" d="M79.84,78.58H14.14a4.52,4.52,0,0,0-4,2.16L7.42,87a1.61,1.61,0,0,0,.09,1.58,2.65,2.65,0,0,0,2.29,1H77.62a4.48,4.48,0,0,0,4.12-2.79l0-.08a3.75,3.75,0,0,0,.12-.36l0-.06L83,82.55a3.05,3.05,0,0,0-.44-2.7A3.33,3.33,0,0,0,79.84,78.58Z"/>
    <path class="cls-1" d="M85,107.7a1.29,1.29,0,0,0-.37-1,1.34,1.34,0,0,0-1-.4h-47a4.45,4.45,0,0,0-3.93,2.06l-2.68,6a1.5,1.5,0,0,0,.09,1.51,2.63,2.63,0,0,0,2.25.93H85.94l-.18-.61A24.7,24.7,0,0,1,85,107.7Z"/>
    <g>
      <path d="M249.72,81.73c-10,49.07-83.34,51.48-77.77,6.48C177.25,30.92,262.41,28,249.72,81.73ZM215.64,62.34c-17.81-1.22-26.84,33.12-12.92,38.22C225.77,109,237.39,61.57,215.64,62.34Z"/>
      <path d="M272.71,117.56c-23.93,4-23.06-1.24-18.86-20.75,4.12-19.12,6.6-32.35,9.71-38.75,7.79-15.73,67.16-24,45.48,4.74a38.45,38.45,0,0,0-24.28,2.56Z"/>
      <path d="M412.54,117.48c-53.75,16.39,15.31-72.23-30.42-52.82-3.79,1.6-1.51,4.29-2.79,10.2-3.15,13.66-9.81,42.49-9.84,42.62-53.7,16,16.82-71.18-30.87-53.4l-12.33,53.4c-31.61,5.74-20.24-8.23-14.43-38.55,2.23-44.08,53.38-39.12,62.94-28.65C447.27,22.12,419.24,83.58,412.54,117.48Z"/>
      <path d="M446.65,117.29c-26.32,4.59-23-3.5-18.65-21.38,4.16-18,11.1-49,11.13-49.12,26.3-5,22.36,4,18,21.63C453,86.46,447.85,116.69,446.65,117.29Z"/>
      <path d="M458.78,37.58c5.64-1.6,6.77-7.8,7.13-12.9a5,5,0,0,0-4.37-5.28,32.79,32.79,0,0,0-11.83.65c-7.19,2.23-7.38,13.74-7.35,17.26A32.52,32.52,0,0,0,458.78,37.58Z"/>
      <path d="M522,96.33c-6,37.33-87.88,27.09-55.84-.17,6.26,7.18,40.95,10.71,30.67-4.13-12.26-4.67-28.6-5.27-29.92-18.43-3.52-43.46,85.32-35.69,53.65-7.8C516,59.9,480.22,58,493.66,71,510.07,75.58,525.05,77.47,522,96.33Z"/>
      <path d="M542.46,118.54c-25.1,3.06-15.39-10.55-13.05-24.7,5.77-25,17-73.55,17-73.63,29.69-6,20.6,7.83,16.78,26.7,63.73-17.15,37.07,37.62,31.36,70.21-53.54,15.45,20-73.7-35-52.26l-11,52.49C547.44,117.65,544.32,118.29,542.46,118.54Z"/>
      <path d="M172,46.33c6.94-.24,11-6.46,11-13.62,0-3-2.35-5-5.38-5.11-17.44-.61-60-6.65-61.35,12.13-13.52,66-27.45,83.73,10.37,78.1-2.73-8.31,1.67-22.12,3.64-31.82a2.06,2.06,0,0,1,2-1.66c16-.9,40.32,6.64,36.3-16.83a2.28,2.28,0,0,0-2.17-1.81H136.52a2,2,0,0,1-1.79-2.66l3.12-15a2.44,2.44,0,0,1,2.36-1.68Z"/>
    </g>
    <path d="M90.86,33.94a5.36,5.36,0,0,0,4.65-2.78,21.89,21.89,0,0,1,4.41-5.58,26.09,26.09,0,0,1,2.17-1.74l1.72-1.23-7.47-7.52H25.51l-.21,0-.5.05-.1,0-.18,0a4.26,4.26,0,0,0-.51.13l-.12,0-.12,0a5.72,5.72,0,0,0-.55.22l-.17.08a6.48,6.48,0,0,0-.72.45,4.16,4.16,0,0,0-.39.32l-.08.09q-.16.16-.3.33l-.1.13a4.48,4.48,0,0,0-.28.47l-2.82,6.22a2.06,2.06,0,0,0,.1,2,1.82,1.82,0,0,0,.29.38l6.91,7h0a3.31,3.31,0,0,0,2.37.83M25.52,16.09c.43,0,59,0,70.41,0l6.45,6.5h-70a5.82,5.82,0,0,0-2.16.43L23.6,16.58l.07,0,.22-.1.21-.08.23-.07.4-.1.23-.05A4.3,4.3,0,0,1,25.52,16.09ZM19.3,25.23a1.09,1.09,0,0,1,0-1.08l2.82-6.21a2,2,0,0,1,.19-.31l.06-.09c.07-.08.14-.16.29-.31l.11-.1,6.56,6.38A3.55,3.55,0,0,0,28,24.92l-2.68,5.9a3.1,3.1,0,0,0-.13.4l-5.73-5.78A1.16,1.16,0,0,1,19.3,25.23Zm8.82,7.71a2.21,2.21,0,0,1-1.84-.71,1,1,0,0,1-.05-1l2.68-5.9a4,4,0,0,1,3.48-1.74h68.2a24.32,24.32,0,0,0-2.12,1.66A21.41,21.41,0,0,0,94,30.81a4.23,4.23,0,0,1-3.68,2.13Z"/>
    <path d="M24.77,51.5A3.74,3.74,0,0,0,24,52.64l-2.58,6.22a2.25,2.25,0,0,0,.15,2.2,2.46,2.46,0,0,0,2.12,1H31a4.42,4.42,0,0,0,3.72-2.23l6-6a3.59,3.59,0,0,0,.48-.61l.07-.1a2.52,2.52,0,0,0,.23-.44L44,46.46l.09-.26a2.25,2.25,0,0,0,.08-.36l0-.14h0a1.49,1.49,0,0,0,0-.21,1.79,1.79,0,0,0,0-.21,1.23,1.23,0,0,0,0-.2,2.25,2.25,0,0,0,0-.22l-.07-.23a3.17,3.17,0,0,0-.21-.38,2,2,0,0,0-.42-.46,1.94,1.94,0,0,0-.33-.23l-.27-.13-.25-.08-.25-.06-.26,0-.33,0H34.39l-.36,0-.44.1a4.61,4.61,0,0,0-.55.2c-.15.07-.29.15-.43.23l-.13.08-.18.1a4.16,4.16,0,0,0-.64.54m2.54-.27.26,0H42l.21,0,.12,0,.08,0-6,6a2.83,2.83,0,0,0-1.07-.21H28.15a3.36,3.36,0,0,0-.63.06l4.85-4.9a2.9,2.9,0,0,1,.57-.45l.19-.11a3.3,3.3,0,0,1,.32-.18,4.29,4.29,0,0,1,.48-.17l.16,0M33.07,60a3.35,3.35,0,0,1-2.32,1H23.8a1.49,1.49,0,0,1-1.28-.57,1.35,1.35,0,0,1,0-1.29l2.73-6.28a3.35,3.35,0,0,1,1.93-1.67h0l.09,0h0a2.91,2.91,0,0,1,.91-.16H35.3a1.49,1.49,0,0,1,1.28.57,1.35,1.35,0,0,1,0,1.29l-2.73,6.28h0m9.3-14.1a.43.43,0,0,1,0,.11s0,.07,0,.11v.12a.49.49,0,0,1,0,.12l0,.14a1.09,1.09,0,0,1,0,.17,1.27,1.27,0,0,1-.06.18l-2.59,6.25a2.3,2.3,0,0,1-.12.23l-.06.09a3.08,3.08,0,0,1-.37.47l-4.11,4.15,1.7-3.93a2.28,2.28,0,0,0-.11-2.23,1.5,1.5,0,0,0-.2-.24L43.12,45h0"/>
    <path d="M84.52,62.08A5,5,0,0,0,88,60.61h0l6.89-7A4.33,4.33,0,0,0,96,51.76l1.08-4a3.52,3.52,0,0,0-.57-3.12,3.87,3.87,0,0,0-3.12-1.45H61.78a5.43,5.43,0,0,0-3.7,1.47l-6.89,7h0a2.82,2.82,0,0,0-.67,1L49,56.21l-1.37,3.23a1.7,1.7,0,0,0,.1,1.63,2.62,2.62,0,0,0,2.3,1m38-11a3.59,3.59,0,0,0-1.55-.33H54.43a5.07,5.07,0,0,0-1.09.13l5.45-5.5a4.39,4.39,0,0,1,3-1.17H93.39a3,3,0,0,1,1.39.32M51.32,53.38a3.57,3.57,0,0,1,3.11-1.61H86.54a2.36,2.36,0,0,1,1.95.89,2.19,2.19,0,0,1,.28,1.91l-1.18,4.11a3.51,3.51,0,0,1-3.28,2.4H50.76a2.18,2.18,0,0,1-1.83-.75,1.13,1.13,0,0,1-.07-1.09M96.12,47.53l-1.08,4A3.45,3.45,0,0,1,94.17,53l-5.48,5.53,1-3.63a3.16,3.16,0,0,0-.44-2.78,3,3,0,0,0-.39-.41l6.69-6.5a1.42,1.42,0,0,1,.12.13h0A2.53,2.53,0,0,1,96.12,47.53Z"/>
    <path d="M89.71,72.17a3.86,3.86,0,0,0-3.12-1.45H21.54a5.36,5.36,0,0,0-3.71,1.46l-6.9,7h0a3.21,3.21,0,0,0-.68,1L7.68,86.33v0L7.39,87a1.63,1.63,0,0,0,.09,1.58,2.66,2.66,0,0,0,2.29,1H77.6a4.23,4.23,0,0,0,.79-.08,5,5,0,0,0,2.76-1.4h0l6.89-7a4.84,4.84,0,0,0,1.09-1.73l1.15-4.14A3.54,3.54,0,0,0,89.71,72.17Zm-71.17.71a4.39,4.39,0,0,1,3-1.16H86.59a3.3,3.3,0,0,1,1.1.2l-7,6.78a3.84,3.84,0,0,0-.91-.12H14.12a5,5,0,0,0-1.44.22ZM81,85.94l0,.06s0,0,0,0l-.09.28,0,.11a3.5,3.5,0,0,1-2.57,2.07,2.63,2.63,0,0,1-.49.06H10.55a2.21,2.21,0,0,1-1.87-.75,1.14,1.14,0,0,1-.08-1.08L11,81.14a3.57,3.57,0,0,1,3.09-1.56H79.81a2.36,2.36,0,0,1,1.93.87A2,2,0,0,1,82,82.27C81.61,83.68,81,85.82,81,85.94ZM89.32,75l-1,3.67-.13.41a3.72,3.72,0,0,1-.85,1.35L82,85.8c.3-1,1-3.25,1-3.25a2.9,2.9,0,0,0-1.26-3.43l6.87-6.68a3.55,3.55,0,0,1,.33.34h0A2.5,2.5,0,0,1,89.32,75Z"/>
    <path d="M86.51,117l-.33-1.25v0c-.07-.28-.14-.57-.2-.86s-.1-.48-.14-.76-.11-.75-.16-1.13-.07-.58-.1-.88c0-.55-.07-1.12-.08-1.71,0-.2,0-.38,0-.6v-.49c0-.7,0-1.42.09-2.18a2.29,2.29,0,0,0,0-.37v-.07a1.86,1.86,0,0,0-.1-.37l-.06-.12a.94.94,0,0,0-.13-.23l-.07-.11a1.08,1.08,0,0,0-.17-.19l-6.87-6.94a1.76,1.76,0,0,0-1.31-.54H29.41A5,5,0,0,0,25,100.63l-2.82,6.22a2.11,2.11,0,0,0,.09,2c.11.17.28.35.28.36l6.89,7a3.35,3.35,0,0,0,2.38.84H86.51Zm-54.64-1a1.71,1.71,0,0,1-1.42-.52.63.63,0,0,1,0-.64l2.72-6.27a3.56,3.56,0,0,1,3.09-1.57H84.14a.38.38,0,0,1,.28.11.44.44,0,0,1,.1.31c0,1-.06,2,0,2.87,0,.55,0,1.06.06,1.51V112c0,.39.09.75.13,1.13,0,.2,0,.42.07.62v0c0,.32.11.63.17.93s.08.46.13.66.08.44.13.65Zm45-16.85a.8.8,0,0,1,.58.22h0L84,106.05H36.25a5.17,5.17,0,0,0-2.27.55l-6.92-6.75a4.87,4.87,0,0,1,2.35-.65Zm-53.77,9.16a1.15,1.15,0,0,1,0-1.1l2.82-6.21a2.11,2.11,0,0,1,.4-.57l6.84,6.67a2.89,2.89,0,0,0-.86,1.07l-2.73,6.27a2.22,2.22,0,0,0-.1.31l-6.19-6.25Z"/>
    <polygon class="cls-2" points="22.2 16.84 18.58 24.85 24.93 31.72 28.95 24.51 31.43 23.02 102.93 22.83 95.92 15.56 25.24 15.58 22.2 16.84"/>
    <polygon class="cls-2" points="26.3 50.78 36 50.78 37.32 51.72 34.91 58.79 41.13 52.63 43.8 45.13 42.36 43.8 33.63 43.7 26.3 50.78 26.3 50.78"/>
    <polyline class="cls-2" points="52.39 51.27 60.15 43.7 94.75 43.98 96.88 46.09 95.12 52.76 88.02 59.65 89.2 52.92 87.6 51.24"/>
    <polyline class="cls-2" points="11.55 79.12 11.55 79.12 19.5 71.5 87.91 71.33 89.95 73.08 88.55 80.11 81.2 87.13 82.78 80.74 79.95 78.91"/>
    <polyline class="cls-2" points="25.83 99.94 28.56 98.77 77.42 98.77 85.21 106.45 35.04 106.84 32.94 108.22 29.65 115.6 22.18 107.94"/>
  </g>
</svg>
